<svg xmlns="http://www.w3.org/2000/svg" width="798" height="128" viewBox="-128 192 768 128" data-svgdocument="" id="_NgI2mteKmur8nT34awNV3" class="fl-svgdocument" x="0" y="0" style="overflow: visible;" xmlns:xlink="http://www.w3.org/1999/xlink"><defs id="_qat2cfrENuArgaAuhm7yi" transform="matrix(1.1281657218933105, 0, 0, 1.1281657218933105, -25.93399429321289, -23.228153228759766)"></defs><rect id="_TgqCV72jwgCd-easitq25" x="-0.013" y="0" width="176.769" height="176.769" fill="#c3e627" transform="matrix(2.353353977203369, 0, 0, 0.574561595916748, 48.03059387207031, 205.21766662597656)"></rect><path text="Aknife" text-anchor="start" font-size="100" letter-spacing="0" side="left" offset="0" dx="0" dy="0" space="preserve" href="" font-family="Englebert" font-scale="contain" transform="matrix(0.4851076900959015, 0, 0, 0.4851076900959015, 160.2249298095703, 272.9593505859375)" x="0" y="0" fill="#000000" data-fl-textpath="" id="_UtKibuPJRDurkaPvAWo9l" d="M 43.7 0.68L 33.89 0.68L 31.49-12.4Q 29.15-12.5  26.86-12.55Q 24.56-12.6  22.22-12.6L 22.22-12.6Q 19.73-12.6  17.19-12.55Q 14.65-12.5  12.11-12.4L 12.11-12.4Q 11.47-9.08  10.91-5.86Q 10.35-2.64  9.81 0.59L 9.81 0.59L 0.68 0.68Q 2.83-7.96  4.71-16.75Q 6.59-25.54  8.35-34.38Q 10.11-43.21  11.82-52.05Q 13.53-60.89  15.28-69.58L 15.28-69.58L 27.88-69.82Q 31.4-52.2  35.28-34.42Q 39.16-16.65  43.7 0.68L 43.7 0.68ZM 21.92-60.89L 21.92-60.89Q 19.58-50.59  17.48-40.21Q 15.38-29.83  13.38-19.38L 13.38-19.38Q 15.53-19.29  17.63-19.34Q 19.73-19.38  21.92-19.38L 21.92-19.38Q 24.02-19.38  26.03-19.34Q 28.03-19.29  30.08-19.38L 30.08-19.38Q 28.13-29.88  26.12-40.23Q 24.12-50.59  21.92-60.89ZM 47.708828125-69.58L 57.178828125-69.38Q 57.178828125-45.8  56.588828125-22.61L 56.588828125-22.61Q 61.178828124999995-29.59  65.528828125-36.87Q 69.868828125-44.14  74.118828125-51.61L 74.118828125-51.61L 83.298828125-48.49Q 80.268828125-43.95  77.218828125-39.65Q 74.168828125-35.35  71.08882812499999-31.1L 71.08882812499999-31.1Q 74.018828125-23.34  77.53882812500001-15.92Q 81.05882812499999-8.5  84.908828125-1.22L 84.908828125-1.22L 76.31882812500001 0.78Q 73.538828125-5.42  71.048828125-11.77Q 68.558828125-18.12  66.50882812500001-24.9L 66.50882812500001-24.9Q 63.918828125000005-21.58  61.378828125-18.33Q 58.838828125-15.09  56.198828125-11.91L 56.198828125-11.91L 55.808828125-0.49L 49.708828125-0.49Q 49.458828125-17.77  48.998828125-34.94Q 48.538828125-52.1  47.708828125-69.58L 47.708828125-69.58ZM 126.99976562500001-0.2L 120.309765625 0.2Q 119.919765625-7.23  119.559765625-13.16Q 119.189765625-19.09  118.899765625-23.29L 118.899765625-23.29Q 118.54976562499999-28.17  118.209765625-31.98L 118.209765625-31.98Q 117.819765625-37.89  116.71976562500001-40.89Q 115.629765625-43.9  113.919765625-43.9L 113.919765625-43.9Q 112.209765625-43.9  110.449765625-41.75Q 108.689765625-39.6  106.979765625-36.04Q 105.269765625-32.47  103.739765625-27.91Q 102.199765625-23.34  100.899765625-18.51Q 99.609765625-13.67  98.659765625-8.94Q 97.709765625-4.2  97.21976562500001-0.39L 97.21976562500001-0.39L 90.529765625-0.2Q 90.819765625-8.3  90.819765625-15.58L 90.819765625-15.58Q 90.819765625-23.19  90.579765625-29.52Q 90.329765625-35.84  90.039765625-40.43L 90.039765625-40.43Q 89.699765625-45.8  89.309765625-50.1L 89.309765625-50.1L 98.729765625-49.71L 98.729765625-30.08Q 99.849765625-33.3  100.729765625-35.5Q 101.609765625-37.7  102.199765625-39.06L 102.199765625-39.06Q 102.879765625-40.67  103.319765625-41.6L 103.319765625-41.6Q 104.589765625-43.99  106.099765625-45.87Q 107.619765625-47.75  109.249765625-49.05Q 110.889765625-50.34  112.569765625-51.03Q 114.259765625-51.71  115.819765625-51.71L 115.819765625-51.71Q 117.379765625-51.71  118.74976562500001-51.03Q 120.119765625-50.34  121.169765625-48.88Q 122.21976562500001-47.41  122.96976562500001-45.14Q 123.729765625-42.87  124.119765625-39.7L 124.119765625-39.7Q 124.899765625-34.42  125.48976562499999-28.17L 125.48976562499999-28.17Q 126.02976562500001-22.8  126.46976562500001-15.63Q 126.899765625-8.45  126.99976562500001-0.2L 126.99976562500001-0.2ZM 145.997578125-65.92L 145.997578125-65.92Q 145.997578125-64.7  145.527578125-63.65Q 145.067578125-62.6  144.287578125-61.84Q 143.507578125-61.08  142.457578125-60.64Q 141.407578125-60.21  140.237578125-60.21L 140.237578125-60.21Q 139.057578125-60.21  138.017578125-60.64Q 136.967578125-61.08  136.207578125-61.84Q 135.447578125-62.6  134.987578125-63.65Q 134.517578125-64.7  134.517578125-65.92L 134.517578125-65.92Q 134.517578125-67.09  134.987578125-68.14Q 135.447578125-69.19  136.207578125-69.95Q 136.967578125-70.7  138.017578125-71.14Q 139.057578125-71.58  140.237578125-71.58L 140.237578125-71.58Q 141.407578125-71.58  142.457578125-71.14Q 143.507578125-70.7  144.287578125-69.95Q 145.067578125-69.19  145.527578125-68.14Q 145.997578125-67.09  145.997578125-65.92ZM 135.937578125-50.59L 144.137578125-50L 143.307578125-1.22L 136.617578125-1.22L 135.937578125-50.59ZM 176.757109375-71.68L 176.517109375-62.89Q 176.077109375-62.99  175.637109375-63.04Q 175.197109375-63.09  174.757109375-63.09L 174.757109375-63.09Q 173.247109375-63.09  172.067109375-62.55Q 170.897109375-62.01  170.017109375-61.16Q 169.137109375-60.3  168.527109375-59.2Q 167.917109375-58.11  167.527109375-56.98L 167.527109375-56.98Q 166.557109375-54.3  166.357109375-50.88L 166.357109375-50.88Q 166.307109375-50.73  166.307109375-50.59L 166.307109375-50.59Q 166.257109375-50.39  166.257109375-49.9L 166.257109375-49.9L 176.027109375-50.1L 176.027109375-42.48L 166.017109375-42.48Q 165.867109375-36.67  165.747109375-26.32Q 165.627109375-15.97  165.627109375-0.39L 165.627109375-0.39L 159.327109375-0.2Q 158.937109375-15.63  158.837109375-25.98Q 158.737109375-36.33  158.737109375-42.48L 158.737109375-42.48L 151.027109375-42.48L 151.027109375-49.61L 158.737109375-49.71L 158.737109375-52.49Q 158.737109375-58.15  160.347109375-61.87Q 161.967109375-65.58  164.527109375-67.75Q 167.087109375-69.92  170.317109375-70.8Q 173.537109375-71.68  176.757109375-71.68L 176.757109375-71.68ZM 222.123671875-28.71L 186.623671875-28.71Q 186.523671875-28.17  186.573671875-27.66Q 186.623671875-27.15  186.623671875-26.61L 186.623671875-26.61Q 186.623671875-21.73  187.593671875-18.38Q 188.573671875-15.04  190.063671875-12.84Q 191.553671875-10.64  193.333671875-9.47Q 195.113671875-8.3  196.68367187500002-7.74Q 198.243671875-7.18  199.363671875-7.08Q 200.483671875-6.98  200.733671875-6.98L 200.733671875-6.98Q 200.68367187500002-6.98  201.413671875-7.06Q 202.143671875-7.13  203.34367187499998-7.45Q 204.543671875-7.76  206.053671875-8.45Q 207.563671875-9.13  209.053671875-10.38Q 210.543671875-11.62  211.863671875-13.5Q 213.18367187500002-15.38  214.013671875-18.12L 214.013671875-18.12L 220.023671875-16.41Q 219.283671875-13.38  218.063671875-11.04Q 216.84367187499998-8.69  215.353671875-6.93Q 213.863671875-5.18  212.18367187500002-3.93Q 210.493671875-2.69  208.883671875-1.9L 208.883671875-1.9Q 205.073671875 0.05  200.733671875 0.39L 200.733671875 0.39Q 196.43367187500002 0.39  193.143671875-0.9Q 189.843671875-2.2  187.453671875-4.39Q 185.053671875-6.59  183.443671875-9.42Q 181.833671875-12.26  180.883671875-15.36Q 179.933671875-18.46  179.513671875-21.56Q 179.103671875-24.66  179.103671875-27.39L 179.103671875-27.39Q 179.103671875-29.93  179.393671875-32.96Q 179.683671875-35.99  180.513671875-39.06Q 181.343671875-42.14  182.863671875-45.02Q 184.373671875-47.9  186.813671875-50.15Q 189.253671875-52.39  192.753671875-53.74Q 196.243671875-55.08  201.023671875-55.08L 201.023671875-55.08Q 201.853671875-55.08  203.733671875-54.91Q 205.613671875-54.74  207.963671875-53.93Q 210.303671875-53.13  212.793671875-51.49Q 215.283671875-49.85  217.353671875-46.92Q 219.43367187500002-43.99  220.773671875-39.55Q 222.123671875-35.11  222.123671875-28.71L 222.123671875-28.71ZM 200.733671875-47.61L 200.733671875-47.61Q 197.363671875-47.36  194.533671875-46L 194.533671875-46Q 193.313671875-45.41  192.113671875-44.51Q 190.913671875-43.6  189.893671875-42.31Q 188.863671875-41.02  188.083671875-39.26Q 187.303671875-37.5  187.013671875-35.21L 187.013671875-35.21L 213.813671875-35.21Q 213.523671875-38.09  212.253671875-40.38Q 210.983671875-42.68  209.153671875-44.29Q 207.323671875-45.9  205.103671875-46.75Q 202.883671875-47.61  200.733671875-47.61Z"></path><path id="_K_cr6g11uRc2UnlxSX2XE" d="M1.868,11.338l9.415,1.275l1.274,9.415c0.067,0.496,0.458,0.886,0.955,0.95c0.049,0.007,0.096,0.009,0.145,0.009  c0.441,0,0.849-0.264,1.021-0.682l8.295-19.934c0.174-0.415,0.078-0.892-0.238-1.209c-0.319-0.319-0.798-0.413-1.209-0.24  L1.591,9.218c-0.462,0.192-0.738,0.67-0.673,1.166S1.371,11.271,1.868,11.338z M19.896,4.001l-5.691,13.676l-0.839-6.196  c-0.066-0.494-0.455-0.882-0.95-0.949L6.219,9.692L19.896,4.001z" fill="#000000" transform="matrix(1.9094805717468262, 0, 0, 1.9094805717468262, 87.68431091308594, 233.25479125976562)"></path></svg>